<svg width="90" height="90" viewBox="0 0 90 90" fill="none" xmlns="http://www.w3.org/2000/svg">
<rect width="90" height="90" rx="45" fill="#FFECE2"/>
<g clip-path="url(#clip0_0_2037)">
<path d="M45.5548 8C46.0902 8.51502 46.7108 8.96705 47.1406 9.55802C48.0762 10.8456 48.8895 12.2202 49.8046 13.5207C50.0307 13.8412 50.429 14.1228 50.805 14.2376C52.4335 14.7415 54.0841 15.1769 55.7255 15.64C57.7967 16.2254 58.308 17.8075 56.9575 19.4656C55.8922 20.7735 54.827 22.0796 53.7395 23.3653C53.4357 23.7247 53.3116 24.0748 53.3431 24.5509C53.4616 26.3238 53.545 28.1005 53.6284 29.8771C53.7191 31.8149 52.3093 32.8245 50.4994 32.1168C48.8246 31.461 47.1629 30.7737 45.4807 30.1401C45.1954 30.0327 44.799 30.0345 44.5137 30.142C42.8315 30.7756 41.1698 31.4629 39.4951 32.1168C37.6851 32.8245 36.279 31.8112 36.3698 29.8715C36.4531 28.0949 36.5346 26.3201 36.6551 24.5454C36.6865 24.0693 36.5606 23.7191 36.2567 23.3597C35.1248 22.0184 34.0114 20.6624 32.9073 19.2989C31.755 17.8742 32.2626 16.2403 34.0114 15.7345C35.7825 15.2232 37.5647 14.7452 39.332 14.2154C39.6303 14.1265 39.9471 13.8949 40.1231 13.6374C41.0531 12.2887 41.9016 10.8826 42.8612 9.55616C43.2891 8.96704 43.9116 8.51502 44.447 8H45.5567H45.5548ZM45.0009 13.9597C44.384 14.8953 43.8041 15.6975 43.3058 16.5496C42.7908 17.4296 42.0646 17.9187 41.079 18.141C40.1064 18.3596 39.156 18.6801 38.1167 18.9784C38.8374 19.8528 39.458 20.6568 40.1323 21.4127C40.7752 22.1352 41.016 22.9299 40.9123 23.8933C40.8048 24.9122 40.8048 25.9422 40.753 27.0667C41.5181 26.7666 42.2109 26.5702 42.8297 26.2349C44.2914 25.442 45.703 25.4272 47.1703 26.2238C47.8002 26.5665 48.5078 26.7629 49.2526 27.0538C49.2007 25.9422 49.21 24.9455 49.0951 23.9655C48.9765 22.9503 49.2285 22.1185 49.9139 21.3626C50.5864 20.6198 51.1978 19.8194 51.8925 18.9747C50.7198 18.6393 49.6676 18.304 48.5968 18.041C47.802 17.8464 47.2444 17.4037 46.8183 16.7238C46.257 15.8271 45.6586 14.9546 45.0009 13.9597Z" fill="#FF6D1C"/>
<path d="M44.8546 78.9999C40.4177 78.9999 35.9808 78.9999 31.5457 78.9999C29.8395 78.9999 29.0447 78.207 29.0429 76.5064C29.0429 72.6252 29.0373 68.7422 29.0503 64.8611C29.0503 64.4127 28.9354 64.1145 28.5723 63.8088C22.6274 58.7902 19.4058 52.4025 19.0556 44.6142C18.976 42.8395 18.9908 41.0554 19.0482 39.2788C19.1594 35.8979 21.8475 33.1987 25.1358 33.0875C28.6372 32.9689 31.5346 35.394 31.844 38.8305C31.9922 40.4811 31.9051 42.154 31.9292 43.8176C32.0237 50.146 36.2642 55.2962 42.4537 56.6041C49.6083 58.1158 56.9094 53.062 57.882 45.811C58.1469 43.8325 58.0431 41.802 58.0691 39.7938C58.0987 37.5244 58.9009 35.6348 60.772 34.3028C62.8265 32.8374 65.07 32.6336 67.3264 33.7211C69.555 34.7956 70.8537 36.6445 70.9389 39.1417C71.076 43.16 71.0871 47.1745 69.8552 51.0853C68.2342 56.2318 65.3775 60.5242 61.1962 63.9292C60.8294 64.2275 60.7034 64.5239 60.7053 64.9778C60.7201 68.8126 60.7164 72.6493 60.7127 76.4841C60.7127 78.2274 59.9254 78.9999 58.1635 78.9999C53.7266 78.9999 49.2897 78.9999 44.8546 78.9999ZM56.5018 74.739V73.9183C56.5018 70.567 56.5388 67.2157 56.4814 63.8644C56.461 62.6769 56.8704 61.8654 57.8282 61.1763C60.3218 59.3848 62.2633 57.0895 63.825 54.4496C66.6095 49.744 66.9855 44.5827 66.7391 39.3048C66.6854 38.1395 65.6128 37.254 64.4827 37.2873C63.3007 37.3225 62.3504 38.2692 62.33 39.4789C62.3078 40.8424 62.367 42.2077 62.3096 43.5694C62.2577 44.7662 62.2003 45.9796 61.9595 47.1467C60.0402 56.4652 51.4202 62.3527 41.9961 60.8243C34.5154 59.6109 28.3945 53.0398 27.8035 45.4942C27.6479 43.4953 27.722 41.4778 27.672 39.4678C27.6423 38.2599 26.6827 37.3132 25.5045 37.2873C24.3781 37.2614 23.2758 38.1654 23.2684 39.3177C23.2517 41.6724 23.1535 44.0529 23.4444 46.3779C24.2114 52.5173 27.1514 57.4767 32.1089 61.2004C32.924 61.8117 33.2742 62.5453 33.2631 63.5624C33.2297 67.0063 33.2501 70.4503 33.2501 73.8942C33.2501 74.1628 33.2501 74.4315 33.2501 74.739H56.4999H56.5018Z" fill="#FF6D1C"/>
<path d="M35.3767 43.9752C35.3693 38.7102 39.621 34.4641 44.8953 34.4678C50.1251 34.4715 54.3879 38.7102 54.4083 43.927C54.4305 49.1643 50.1436 53.4771 44.9082 53.4845C39.6469 53.4919 35.3841 49.2384 35.3767 43.9752ZM50.1547 43.9381C50.1418 41.024 47.7556 38.6546 44.8545 38.675C41.9552 38.6954 39.5839 41.0944 39.5969 43.9956C39.6099 46.8986 42.0034 49.2625 44.9119 49.2439C47.8427 49.2254 50.1677 46.8726 50.1547 43.9381Z" fill="#FF6D1C"/>
<path d="M29.932 29.1212C29.6708 28.9767 29.0705 28.7933 28.6704 28.4024C26.0453 25.8366 23.4572 23.2319 20.8729 20.6253C19.9651 19.712 19.9429 18.4429 20.771 17.5871C21.6084 16.7219 22.9348 16.7256 23.8611 17.6463C26.4677 20.2325 29.0594 22.8317 31.6512 25.4309C32.3348 26.1163 32.5534 26.9333 32.1662 27.8392C31.8161 28.6599 31.1547 29.0656 29.932 29.1193V29.1212Z" fill="#FF6D1C"/>
<path d="M60.5477 29.1176C59.3714 29.0769 58.7118 28.6767 58.3376 27.8671C57.956 27.0427 58.1375 26.1498 58.8304 25.4514C61.1758 23.0949 63.5304 20.7477 65.8795 18.3968C66.1574 18.1189 66.426 17.8336 66.715 17.5668C67.5987 16.748 68.901 16.7498 69.7106 17.5668C70.5035 18.3653 70.5535 19.6713 69.7328 20.505C67.0744 23.2005 64.3974 25.8775 61.6908 28.5266C61.3407 28.8694 60.7849 29.0009 60.5477 29.1176Z" fill="#FF6D1C"/>
</g>
<defs>
<clipPath id="clip0_0_2037">
<rect width="52" height="71" fill="white" transform="translate(19 8)"/>
</clipPath>
</defs>
</svg>
